<svg xmlns="http://www.w3.org/2000/svg" viewBox="0 0 1024 1024" width="1024" height="1024">  


  <!-- Layer 2: 12 clock marks (rounded ends, no outer ring) -->
  <g stroke="#FFFFFF" stroke-width="22" stroke-linecap="round">
    <line x1="512" y1="88" x2="512" y2="140" transform="rotate(0 512 512)"/>
    <line x1="512" y1="88" x2="512" y2="140" transform="rotate(30 512 512)"/>
    <line x1="512" y1="88" x2="512" y2="140" transform="rotate(60 512 512)"/>
    <line x1="512" y1="88" x2="512" y2="140" transform="rotate(90 512 512)"/>
    <line x1="512" y1="88" x2="512" y2="140" transform="rotate(120 512 512)"/>
    <line x1="512" y1="88" x2="512" y2="140" transform="rotate(150 512 512)"/>
    <line x1="512" y1="88" x2="512" y2="140" transform="rotate(180 512 512)"/>
    <line x1="512" y1="88" x2="512" y2="140" transform="rotate(210 512 512)"/>
    <line x1="512" y1="88" x2="512" y2="140" transform="rotate(240 512 512)"/>
    <line x1="512" y1="88" x2="512" y2="140" transform="rotate(270 512 512)"/>
    <line x1="512" y1="88" x2="512" y2="140" transform="rotate(300 512 512)"/>
    <line x1="512" y1="88" x2="512" y2="140" transform="rotate(330 512 512)"/>
  </g>

</svg>